<svg width="16" height="16" viewBox="0 0 16 16" fill="none" xmlns="http://www.w3.org/2000/svg">
<path fill-rule="evenodd" clip-rule="evenodd" d="M4.90775 0.545C5.708 0.509 5.963 0.5 8 0.5C10.037 0.5 10.292 0.509 11.0922 0.545C11.8902 0.58175 12.4355 0.7085 12.9125 0.89375C13.4131 1.0819 13.8667 1.37702 14.2415 1.7585C14.623 2.13333 14.9181 2.58688 15.1063 3.0875C15.2915 3.5645 15.4183 4.10975 15.455 4.90775C15.491 5.708 15.5 5.963 15.5 8C15.5 10.037 15.491 10.292 15.455 11.0922C15.4183 11.8902 15.2915 12.4355 15.1063 12.9125C14.9181 13.4131 14.623 13.8667 14.2415 14.2415C13.8667 14.623 13.4131 14.9181 12.9125 15.1063C12.4355 15.2915 11.8902 15.4183 11.0922 15.455C10.292 15.4917 10.037 15.5 8 15.5C5.963 15.5 5.708 15.4917 4.90775 15.455C4.10975 15.4183 3.5645 15.2915 3.0875 15.1063C2.58688 14.9181 2.13333 14.623 1.7585 14.2415C1.37702 13.8667 1.0819 13.4131 0.89375 12.9125C0.7085 12.4355 0.58175 11.8902 0.545 11.0922C0.50825 10.292 0.5 10.037 0.5 8C0.5 5.963 0.50825 5.708 0.545 4.90775C0.58175 4.10975 0.7085 3.5645 0.89375 3.0875C1.0819 2.58688 1.37702 2.13333 1.7585 1.7585C2.13333 1.37702 2.58688 1.0819 3.0875 0.89375C3.5645 0.7085 4.10975 0.58175 4.90775 0.545ZM8 4.25C7.00544 4.25 6.05161 4.64509 5.34835 5.34835C4.64509 6.05161 4.25 7.00544 4.25 8C4.25 8.99456 4.64509 9.94839 5.34835 10.6517C6.05161 11.3549 7.00544 11.75 8 11.75C8.99456 11.75 9.94839 11.3549 10.6517 10.6517C11.3549 9.94839 11.75 8.99456 11.75 8C11.75 7.00544 11.3549 6.05161 10.6517 5.34835C9.94839 4.64509 8.99456 4.25 8 4.25ZM5.75 8C5.75 7.40326 5.98705 6.83097 6.40901 6.40901C6.83097 5.98705 7.40326 5.75 8 5.75C8.59674 5.75 9.16903 5.98705 9.59099 6.40901C10.0129 6.83097 10.25 7.40326 10.25 8C10.25 8.59674 10.0129 9.16903 9.59099 9.59099C9.16903 10.0129 8.59674 10.25 8 10.25C7.40326 10.25 6.83097 10.0129 6.40901 9.59099C5.98705 9.16903 5.75 8.59674 5.75 8ZM12.5 4.25C12.6989 4.25 12.8897 4.17098 13.0303 4.03033C13.171 3.88968 13.25 3.69891 13.25 3.5C13.25 3.30109 13.171 3.11032 13.0303 2.96967C12.8897 2.82902 12.6989 2.75 12.5 2.75C12.3011 2.75 12.1103 2.82902 11.9697 2.96967C11.829 3.11032 11.75 3.30109 11.75 3.5C11.75 3.69891 11.829 3.88968 11.9697 4.03033C12.1103 4.17098 12.3011 4.25 12.5 4.25Z" fill="white"/>
</svg>
