<svg width="14" height="12" viewBox="0 0 14 12" fill="none" xmlns="http://www.w3.org/2000/svg">
<path fill-rule="evenodd" clip-rule="evenodd" d="M13.7434 2.65452C13.6833 3.94581 12.766 5.71366 10.9907 7.95873C9.15471 10.3024 7.60219 11.4748 6.33182 11.4748C5.54476 11.4748 4.87853 10.7614 4.33447 9.33372L3.24501 5.40653C2.84136 3.97956 2.408 3.26473 1.94427 3.26473C1.84302 3.26473 1.48999 3.47398 0.884507 3.88979L0.25 3.08653C0.916233 2.51074 1.57302 1.93564 2.21967 1.35986C3.10866 0.605197 3.77624 0.208291 4.22107 0.167791C5.27071 0.0692397 5.91804 0.774623 6.16037 2.28529C6.42295 3.91544 6.60453 4.92862 6.70645 5.32553C7.00953 6.67824 7.34299 7.35325 7.70681 7.35325C7.98897 7.35325 8.41355 6.9145 8.9792 6.03699C9.54419 5.16015 9.84726 4.49324 9.88844 4.03424C9.96944 3.27755 9.66569 2.8982 8.9792 2.8982C8.65655 2.8982 8.3231 2.9711 7.98019 3.11555C8.64373 0.979825 9.91139 -0.0569867 11.7825 0.00241401C13.1697 0.0422395 13.8237 0.925825 13.7434 2.65452Z" fill="white"/>
</svg>
