<svg width="18" height="12" viewBox="0 0 18 12" fill="none" xmlns="http://www.w3.org/2000/svg">
<path fill-rule="evenodd" clip-rule="evenodd" d="M14.7614 5.89823C14.7614 5.89823 17.1021 2.56488 17.3355 1.46965C17.413 1.07873 17.2418 0.859846 16.8388 0.859846H14.8074C14.3422 0.859846 14.1718 1.06258 14.032 1.36062C14.032 1.36062 12.9336 3.7215 11.5985 5.21008C11.1688 5.69065 10.9507 5.83604 10.714 5.83604C10.5234 5.83604 10.4354 5.6745 10.4354 5.24077V1.43815C10.4354 0.906693 10.3732 0.75 9.93865 0.75H6.68365C6.43488 0.75 6.27981 0.895384 6.27981 1.09408C6.27981 1.59485 7.03904 1.70792 7.03904 3.06565V5.86673C7.03904 6.4305 7.00835 6.64938 6.74504 6.64938C6.04719 6.64938 4.38819 4.22388 3.45773 1.46965C3.27196 0.906692 3.07004 0.75 2.54262 0.75H0.512077C0.217269 0.75 0 0.953538 0 1.25077C0 1.79838 0.635654 4.33373 3.13223 7.72846C4.80658 10.0142 7.00915 11.25 8.99285 11.25C10.2028 11.25 10.4976 11.0465 10.4976 10.5303V8.77765C10.4976 8.33908 10.6672 8.15169 10.916 8.15169C11.1946 8.15169 11.6873 8.24215 12.8383 9.38746C14.2033 10.7032 14.2962 11.25 15.04 11.25H17.3193C17.552 11.25 17.7692 11.1402 17.7692 10.7492C17.7692 10.2323 17.1021 9.30992 16.0787 8.21388C15.6603 7.65092 14.9787 7.04031 14.7614 6.75923C14.4512 6.4305 14.5441 6.24231 14.7614 5.89823Z" fill="white"/>
</svg>
