<svg width="18" height="12" viewBox="0 0 18 12" fill="none" xmlns="http://www.w3.org/2000/svg">
<path fill-rule="evenodd" clip-rule="evenodd" d="M7.29675 7.998L7.296 3.33L11.7548 5.67225L7.29675 7.998ZM17.085 2.52075C17.085 2.52075 16.9237 1.37625 16.4295 0.8715C15.8018 0.21 15.0983 0.207 14.7758 0.168C12.4672 -2.23517e-08 9.00375 0 9.00375 0H8.99625C8.99625 0 5.53275 -2.23517e-08 3.22425 0.168C2.90175 0.207 2.19825 0.21 1.5705 0.8715C1.0755 1.37625 0.915 2.5215 0.915 2.5215C0.915 2.5215 0.75 3.86475 0.75 5.2095V6.4695C0.75 7.81425 0.915 9.159 0.915 9.159C0.915 9.159 1.07625 10.3042 1.5705 10.809C2.19825 11.4705 3.0225 11.4487 3.39 11.5185C4.71 11.646 9 11.6857 9 11.6857C9 11.6857 12.4672 11.6805 14.7758 11.5125C15.0983 11.4735 15.8018 11.4705 16.4295 10.8082C16.9245 10.3042 17.085 9.159 17.085 9.159C17.085 9.159 17.25 7.81425 17.25 6.47025V5.2095C17.25 3.86475 17.085 2.52 17.085 2.52V2.52075Z" fill="white"/>
</svg>
